<svg width="20" height="20" viewBox="0 0 20 20" fill="none" xmlns="http://www.w3.org/2000/svg">
<path d="M12.72 6.79012L8.43001 11.0901L6.78 9.44012C6.69036 9.33544 6.58004 9.25042 6.45597 9.1904C6.33191 9.13037 6.19678 9.09664 6.05906 9.09132C5.92134 9.086 5.78401 9.10921 5.65568 9.15948C5.52736 9.20976 5.41081 9.28602 5.31335 9.38347C5.2159 9.48093 5.13964 9.59747 5.08937 9.7258C5.03909 9.85413 5.01589 9.99146 5.02121 10.1292C5.02653 10.2669 5.06026 10.402 5.12028 10.5261C5.1803 10.6502 5.26532 10.7605 5.37 10.8501L7.72 13.2101C7.81344 13.3028 7.92426 13.3761 8.0461 13.4259C8.16794 13.4757 8.2984 13.5009 8.43001 13.5001C8.69234 13.499 8.94374 13.3949 9.13 13.2101L14.13 8.21012C14.2237 8.11716 14.2981 8.00656 14.3489 7.8847C14.3997 7.76284 14.4258 7.63213 14.4258 7.50012C14.4258 7.36811 14.3997 7.2374 14.3489 7.11555C14.2981 6.99369 14.2237 6.88309 14.13 6.79012C13.9426 6.60387 13.6892 6.49933 13.425 6.49933C13.1608 6.49933 12.9074 6.60387 12.72 6.79012ZM10 0.00012207C8.02219 0.00012207 6.08879 0.586612 4.4443 1.68543C2.79981 2.78424 1.51809 4.34603 0.761209 6.17329C0.00433284 8.00055 -0.193701 10.0112 0.192152 11.951C0.578004 13.8908 1.53041 15.6727 2.92894 17.0712C4.32746 18.4697 6.10929 19.4221 8.0491 19.808C9.98891 20.1938 11.9996 19.9958 13.8268 19.2389C15.6541 18.482 17.2159 17.2003 18.3147 15.5558C19.4135 13.9113 20 11.9779 20 10.0001C20 8.6869 19.7413 7.38654 19.2388 6.17329C18.7363 4.96003 17.9997 3.85764 17.0711 2.92905C16.1425 2.00047 15.0401 1.26387 13.8268 0.761327C12.6136 0.25878 11.3132 0.00012207 10 0.00012207ZM10 18.0001C8.41775 18.0001 6.87104 17.5309 5.55544 16.6519C4.23985 15.7728 3.21447 14.5234 2.60897 13.0616C2.00347 11.5998 1.84504 9.99125 2.15372 8.4394C2.4624 6.88755 3.22433 5.46209 4.34315 4.34327C5.46197 3.22445 6.88743 2.46252 8.43928 2.15384C9.99113 1.84516 11.5997 2.00358 13.0615 2.60909C14.5233 3.21459 15.7727 4.23997 16.6518 5.55556C17.5308 6.87115 18 8.41787 18 10.0001C18 12.1219 17.1572 14.1567 15.6569 15.657C14.1566 17.1573 12.1217 18.0001 10 18.0001Z" fill="#1681FE"/>
</svg>
