<svg width="22" height="22" viewBox="0 0 22 22" fill="none" xmlns="http://www.w3.org/2000/svg">
<path d="M14.71 7.29002C14.6171 7.19629 14.5065 7.1219 14.3846 7.07113C14.2627 7.02036 14.132 6.99422 14 6.99422C13.868 6.99422 13.7373 7.02036 13.6154 7.07113C13.4936 7.1219 13.383 7.19629 13.29 7.29002L11 9.59002L8.71002 7.29002C8.52171 7.10171 8.26632 6.99593 8.00002 6.99593C7.73372 6.99593 7.47832 7.10171 7.29002 7.29002C7.10171 7.47832 6.99593 7.73372 6.99593 8.00002C6.99593 8.26632 7.10171 8.52171 7.29002 8.71002L9.59002 11L7.29002 13.29C7.19629 13.383 7.1219 13.4936 7.07113 13.6154C7.02036 13.7373 6.99422 13.868 6.99422 14C6.99422 14.132 7.02036 14.2627 7.07113 14.3846C7.1219 14.5065 7.19629 14.6171 7.29002 14.71C7.38298 14.8037 7.49358 14.8781 7.61544 14.9289C7.7373 14.9797 7.86801 15.0058 8.00002 15.0058C8.13203 15.0058 8.26274 14.9797 8.38459 14.9289C8.50645 14.8781 8.61705 14.8037 8.71002 14.71L11 12.41L13.29 14.71C13.383 14.8037 13.4936 14.8781 13.6154 14.9289C13.7373 14.9797 13.868 15.0058 14 15.0058C14.132 15.0058 14.2627 14.9797 14.3846 14.9289C14.5065 14.8781 14.6171 14.8037 14.71 14.71C14.8037 14.6171 14.8781 14.5065 14.9289 14.3846C14.9797 14.2627 15.0058 14.132 15.0058 14C15.0058 13.868 14.9797 13.7373 14.9289 13.6154C14.8781 13.4936 14.8037 13.383 14.71 13.29L12.41 11L14.71 8.71002C14.8037 8.61705 14.8781 8.50645 14.9289 8.38459C14.9797 8.26274 15.0058 8.13203 15.0058 8.00002C15.0058 7.86801 14.9797 7.7373 14.9289 7.61544C14.8781 7.49358 14.8037 7.38298 14.71 7.29002ZM18.07 3.93002C17.1476 2.97492 16.0441 2.21309 14.8241 1.689C13.604 1.16491 12.2918 0.889052 10.964 0.877514C9.63624 0.865976 8.31944 1.11899 7.09048 1.6218C5.86151 2.12461 4.745 2.86714 3.80607 3.80607C2.86714 4.745 2.12461 5.86151 1.6218 7.09048C1.11899 8.31944 0.865976 9.63624 0.877514 10.964C0.889052 12.2918 1.16491 13.604 1.689 14.8241C2.21309 16.0441 2.97492 17.1476 3.93002 18.07C4.85249 19.0251 5.95593 19.7869 7.17597 20.311C8.39601 20.8351 9.70821 21.111 11.036 21.1225C12.3638 21.1341 13.6806 20.881 14.9096 20.3782C16.1385 19.8754 17.255 19.1329 18.194 18.194C19.1329 17.255 19.8754 16.1385 20.3782 14.9096C20.881 13.6806 21.1341 12.3638 21.1225 11.036C21.111 9.70821 20.8351 8.39601 20.311 7.17597C19.7869 5.95593 19.0251 4.85249 18.07 3.93002ZM16.66 16.66C15.3521 17.9694 13.6306 18.7848 11.7888 18.9673C9.94707 19.1498 8.09902 18.6881 6.55954 17.6608C5.02006 16.6335 3.88438 15.1042 3.34599 13.3335C2.80761 11.5628 2.89982 9.66016 3.60693 7.9498C4.31404 6.23945 5.59229 4.82717 7.22391 3.95358C8.85553 3.07999 10.7396 2.79915 12.555 3.15889C14.3705 3.51863 16.0051 4.49671 17.1803 5.92648C18.3555 7.35625 18.9986 9.14926 19 11C19.0036 12.0513 18.7986 13.0929 18.3969 14.0644C17.9953 15.0359 17.4049 15.9182 16.66 16.66Z" fill="#A9ADB3"/>
</svg>
