<svg width="23" height="23" viewBox="0 0 23 23" fill="none" xmlns="http://www.w3.org/2000/svg">
<g filter="url(#filter0_d_88_9)">
<path d="M17.83 8.44C17.7383 8.30429 17.6146 8.19319 17.4699 8.11647C17.3252 8.03975 17.1638 7.99975 17 8H14V6H16.2C16.4652 6 16.7196 5.89464 16.9071 5.70711C17.0946 5.51957 17.2 5.26522 17.2 5V1C17.2 0.734784 17.0946 0.48043 16.9071 0.292893C16.7196 0.105357 16.4652 0 16.2 0H13C11.4617 0 9.98649 0.61107 8.89878 1.69878C7.81107 2.78649 7.2 4.26174 7.2 5.8V8H5C4.73478 8 4.48043 8.10536 4.29289 8.29289C4.10536 8.48043 4 8.73478 4 9V13C4 13.2652 4.10536 13.5196 4.29289 13.7071C4.48043 13.8946 4.73478 14 5 14H7.2V21C7.2 21.2652 7.30536 21.5196 7.49289 21.7071C7.68043 21.8946 7.93478 22 8.2 22H13C13.2652 22 13.5196 21.8946 13.7071 21.7071C13.8946 21.5196 14 21.2652 14 21V14H15.4C15.6003 14.0002 15.796 13.9402 15.9618 13.8279C16.1276 13.7156 16.2559 13.5561 16.33 13.37L17.93 9.37C17.9904 9.21858 18.0129 9.05468 17.9954 8.89259C17.978 8.7305 17.9212 8.57512 17.83 8.44ZM14.72 12H13C12.7348 12 12.4804 12.1054 12.2929 12.2929C12.1054 12.4804 12 12.7348 12 13V20H9.2V13C9.2 12.7348 9.09464 12.4804 8.90711 12.2929C8.71957 12.1054 8.46522 12 8.2 12H6V10H8.2C8.46522 10 8.71957 9.89464 8.90711 9.70711C9.09464 9.51957 9.2 9.26522 9.2 9V5.8C9.20264 4.79299 9.60384 3.82798 10.3159 3.11591C11.028 2.40384 11.993 2.00264 13 2H15.2V4H14.4C14.0614 3.95067 13.7163 3.97137 13.3861 4.06082C13.0558 4.15026 12.7474 4.30655 12.48 4.52C12.3177 4.6899 12.1915 4.8909 12.109 5.11089C12.0265 5.33087 11.9894 5.56529 12 5.8V9C12 9.26522 12.1054 9.51957 12.2929 9.70711C12.4804 9.89464 12.7348 10 13 10H15.52L14.72 12Z" fill="#7F848D"/>
</g>
<defs>
<filter id="filter0_d_88_9" x="0" y="0" width="22.0012" height="30" filterUnits="userSpaceOnUse" color-interpolation-filters="sRGB">
<feFlood flood-opacity="0" result="BackgroundImageFix"/>
<feColorMatrix in="SourceAlpha" type="matrix" values="0 0 0 0 0 0 0 0 0 0 0 0 0 0 0 0 0 0 127 0" result="hardAlpha"/>
<feOffset dy="4"/>
<feGaussianBlur stdDeviation="2"/>
<feComposite in2="hardAlpha" operator="out"/>
<feColorMatrix type="matrix" values="0 0 0 0 0 0 0 0 0 0 0 0 0 0 0 0 0 0 0.25 0"/>
<feBlend mode="normal" in2="BackgroundImageFix" result="effect1_dropShadow_88_9"/>
<feBlend mode="normal" in="SourceGraphic" in2="effect1_dropShadow_88_9" result="shape"/>
</filter>
</defs>
</svg>
