<svg width="20" height="17" viewBox="0 0 20 17" fill="none" xmlns="http://www.w3.org/2000/svg">
<path d="M13.4 8.16005L8.5 5.00005C8.34798 4.91228 8.17554 4.86608 8 4.86608C7.82446 4.86608 7.65202 4.91228 7.5 5.00005C7.35174 5.08557 7.22791 5.20771 7.14036 5.35479C7.05282 5.50187 7.00449 5.66895 7 5.84005V12.16C7.0013 12.3382 7.05019 12.5129 7.14161 12.6658C7.23303 12.8188 7.36367 12.9445 7.52 13.0301C7.66543 13.1157 7.83123 13.1606 8 13.16C8.17714 13.1479 8.34869 13.093 8.5 13L13.4 9.84005C13.5403 9.74939 13.6557 9.62502 13.7356 9.47828C13.8155 9.33155 13.8574 9.16713 13.8574 9.00005C13.8574 8.83297 13.8155 8.66855 13.7356 8.52182C13.6557 8.37508 13.5403 8.2507 13.4 8.16005ZM9 10.32V7.68005L11 9.00005L9 10.32ZM17.38 1.51005L15.83 1.31005C11.991 0.840009 8.109 0.840009 4.27 1.31005L2.72 1.51005C1.97471 1.59116 1.2854 1.94392 0.783675 2.50098C0.281954 3.05803 0.0029736 3.78036 0 4.53005V13.47C0.00635666 14.2086 0.280506 14.9198 0.771546 15.4715C1.26259 16.0233 1.93715 16.3781 2.67 16.47L4.22 16.66C6.13776 16.8931 8.06815 17.0066 10 17C11.9323 17 13.8627 16.8798 15.78 16.64L17.33 16.4501C18.0628 16.3581 18.7374 16.0033 19.2285 15.4515C19.7195 14.8998 19.9936 14.1886 20 13.4501V4.53005C19.9985 3.78803 19.7265 3.072 19.235 2.51609C18.7435 1.96017 18.0662 1.6025 17.33 1.51005H17.38ZM18.05 13.51C18.0508 13.762 17.9565 14.0049 17.7859 14.1903C17.6154 14.3757 17.3811 14.4899 17.13 14.51L15.58 14.7001C11.9077 15.1601 8.19232 15.1601 4.52 14.7001L2.97 14.51C2.71889 14.4899 2.48463 14.3757 2.31406 14.1903C2.1435 14.0049 2.04919 13.762 2.05 13.51V4.53005C2.06192 4.282 2.16055 4.04601 2.32869 3.86325C2.49683 3.68049 2.7238 3.56256 2.97 3.53005L4.47 3.30005C8.14273 2.8467 11.8573 2.8467 15.53 3.30005L17.08 3.49005C17.3262 3.52256 17.5532 3.64049 17.7213 3.82325C17.8894 4.00601 17.9881 4.242 18 4.49005L18.05 13.51Z" fill="#7F848D"/>
</svg>
